Season 4 , Episode 14 ΓÇô ΓÇ£SmokinΓÇÖ Like A VirginΓÇ¥


ItΓÇÖs summer vacation and Amy and Ricky are basking in the glow of their engagement while some new girls befriend Ben.



The.Secret.Life.of.the.American.Teenager.S04E14.720p.HDTV.x264-IMMERSE.mkv
Format                         : Matroska
Format version                 : Version 2
File size                      : 1.12 GiB
Duration                       : 42mn 30s
Overall bit rate               : 3 758 Kbps
Writing application            : x264.exe
Writing library                : mkv2rls x264-tv version built on 2011. febr. 17

Video
ID                             : 1
Format                         : AVC
Format/Info                    : Advanced Video Codec
Format profile                 : High@L4.1
Format settings, CABAC         : Yes
Format settings, ReFrames      : 5 frames
Codec ID                       : V_MPEG4/ISO/AVC
Duration                       : 42mn 30s
Bit rate                       : 3 300 Kbps
Width                          : 1 278 pixels
Height                         : 718 pixels
Display aspect ratio           : 16:9
Frame rate                     : 23.976 fps
Color space                    : YUV
Chroma subsampling             : 4:2:0
Bit depth                      : 8 bits
Scan type                      : Progressive
Bits/(Pixel*Frame)             : 0.150
Stream size                    : 1 003 MiB (88%)
Writing library                : x264 core 122 r2184 5c85e0a
Encoding settings              : cabac=1 / ref=5 / deblock=1:0:0 / analyse=0x3:0x113 / me=umh / subme=8 / psy=1 / psy_rd=1.00:0.00 / mixed_ref=1 / me_range=16 / chroma_me=1 / trellis=1 / 8x8dct=1 / cqm=0 / deadzone=21,11 / fast_pskip=1 / chroma_qp_offset=-2 / threads=18 / sliced_threads=0 / nr=0 / decimate=1 / interlaced=0 / bluray_compat=0 / constrained_intra=0 / bframes=3 / b_pyramid=2 / b_adapt=2 / b_bias=0 / direct=3 / weightb=1 / open_gop=0 / weightp=2 / keyint=250 / keyint_min=23 / scenecut=40 / intra_refresh=0 / rc_lookahead=50 / rc=crf / mbtree=1 / crf=18.0 / qcomp=0.60 / qpmin=0 / qpmax=69 / qpstep=4 / ip_ratio=1.40 / aq=1:1.00
Language                       : English
Default                        : Yes
Forced                         : No

Audio
ID                             : 2
Format                         : AC-3
Format/Info                    : Audio Coding 3
Mode extension                 : CM (complete main)
Codec ID                       : A_AC3
Duration                       : 42mn 30s
Bit rate mode                  : Constant
Bit rate                       : 384 Kbps
Channel(s)                     : 6 channels
Channel positions              : Front: L C R, Side: L R, LFE
Sampling rate                  : 48.0 KHz
Bit depth                      : 16 bits
Compression mode               : Lossy
Stream size                    : 117 MiB (10%)
Language                       : English
Default                        : Yes
Forced                         : No